<?xml version="1.0" encoding="utf-8"?>
<!-- Generator: Adobe Illustrator 22.1.0, SVG Export Plug-In . SVG Version: 6.00 Build 0)  -->
<svg version="1.1" id="Layer_1" xmlns="http://www.w3.org/2000/svg" xmlns:xlink="http://www.w3.org/1999/xlink" x="0px" y="0px"
	 viewBox="0 0 680 223.6" style="enable-background:new 0 0 680 223.6;" xml:space="preserve">
<style type="text/css">
	.st0{fill:#607D8B;}
</style>
<title>John Holland</title>
<polygon class="st0" points="57.2,142.6 57.2,172.6 23.1,172.6 23.1,142.6 0,142.6 0,222.5 23.1,222.5 23.1,192.6 57.2,192.6 
	57.2,222.5 80.3,222.5 80.3,142.6 "/>
<polygon class="st0" points="208,142.3 208,222.2 276.1,222.2 276.1,202.2 231.1,202.2 231.1,142.3 "/>
<polygon class="st0" points="299.7,142.3 299.7,222.2 367.9,222.2 367.9,202.2 322.8,202.2 322.8,142.3 "/>
<polygon class="st0" points="419.4,142.3 385.3,222.2 408.7,222.2 431,168.2 453.3,222.2 478.2,222.2 444.3,142.3 "/>
<polygon class="st0" points="553.6,142.3 553.6,184.9 520.9,142.3 495.1,142.3 495.1,222.2 517.8,222.2 517.8,173.1 556.3,222.2 
	575.7,222.2 575.7,142.3 "/>
<path class="st0" d="M632.9,202.6h-10.2v-40.9h10.2c12.6,0,21.7,6.8,21.7,20.5C654.6,195.3,645.5,202.6,632.9,202.6 M633.3,142.3
	h-33.8v80h33.8c25.5,0,44.7-13.3,44.7-40C678,155,658.8,142.3,633.3,142.3"/>
<path class="st0" d="M431.8,62.2c-12.2,0-19.5-9.1-19.5-20.8s7.4-20.8,19.5-20.8s19.5,9.1,19.5,20.8S443.9,62.2,431.8,62.2
	 M431.8,0.1c-24,0-42.9,16.1-42.9,41.3c0,24.8,18.7,41.3,42.9,41.3c24,0,42.9-16.5,42.9-41.3C474.7,16.1,455.8,0,431.8,0.1"/>
<path class="st0" d="M144.2,203.2c-12.2,0-19.5-9.1-19.5-20.8s7.4-20.8,19.5-20.8s19.5,9.1,19.5,20.8S156.4,203.2,144.2,203.2
	 M144.2,141c-24,0-42.9,16.1-42.9,41.3c0,24.8,18.7,41.3,42.9,41.3c24,0,42.9-16.5,42.9-41.3C187.1,157.2,168.2,141,144.2,141"/>
<polygon class="st0" points="552.8,1.9 552.8,31.8 518.7,31.8 518.7,1.9 495.6,1.9 495.6,81.8 518.7,81.8 518.7,51.8 552.8,51.8 
	552.8,81.8 575.9,81.8 575.9,1.9 "/>
<polygon class="st0" points="658,1.9 658,44.6 625.3,1.9 599.5,1.9 599.5,81.8 622.2,81.8 622.2,32.8 660.7,81.8 680,81.8 680,1.9 
	"/>
<path class="st0" d="M344.7,1.9v49c0,6.2-2.8,11.1-9.5,11.1H331c-7,0-9.6-5.2-9.6-11.1v-9h-21.7v11.5c0,17.2,9.7,29.3,31.3,29.3h4.2
	c21.4,0,32.7-12,32.7-29.3V1.9H344.7z"/>
<rect x="370.7" y="101" class="st0" width="122.1" height="20.1"/>
</svg>
